<?xml version='1.0' encoding='utf-8'?>
<svg xmlns="http://www.w3.org/2000/svg" viewBox="0 0 500 500"><defs><style>.a{isolation:isolate;}.b{fill:#e03663;}.c{fill:#4eb3e6;}.d{fill:#fff;}.e{fill:#71cff4;}.f{fill:#32373c;}.g{fill:#fa7564;}.h{fill:#565c5e;opacity:0.6;mix-blend-mode:screen;}</style></defs><title>115</title><g class="a"><rect class="b" width="500" height="500"/><path class="c" d="M126.12151,118.01277V379.97271a17.34556,17.34556,0,0,0,17.35921,17.36438l215.07364-.01056V118.01277Z"/><path class="d" d="M332.7677,109.32986V367.17354H143.43812a12.80176,12.80176,0,0,0,.0426,25.60344l202.17325-.01092V109.32986Z"/><path class="e" d="M143.48072,100.65022a17.39322,17.39322,0,0,0-17.35921,17.36255V379.97271a17.36587,17.36587,0,0,1,17.30612-17.36838H332.7677V100.65022Z"/><rect class="d" x="169.1497" y="188.11475" width="146.35157" height="87.03051"/><rect class="c" x="202.66997" y="208.00895" width="79.32159" height="7.61644"/><rect class="f" x="183.2411" y="224.67315" width="118.17205" height="4.50513"/><rect class="f" x="183.2411" y="237.88995" width="118.17205" height="4.5033"/><rect class="f" x="183.2411" y="251.09766" width="118.17205" height="4.50513"/><rect class="c" x="143.42763" y="100.65022" width="8.47312" height="261.95411"/><polygon class="g" points="151.901 379.973 151.901 410.143 164.694 397.337 177.502 410.143 177.509 410.143 177.509 379.973 151.901 379.973"/><path class="h" d="M143.42763,362.60433h98.89968V100.65022H143.48072a17.39322,17.39322,0,0,0-17.35921,17.36255V379.97271A17.36587,17.36587,0,0,1,143.42763,362.60433Z"/></g></svg>